HIERARCHY
ROOT mixamorig:Hips
{
	OFFSET 0.000000 104.274902 0.000000
	CHANNELS 6 Xposition Yposition Zposition Xrotation Yrotation Zrotation
	JOINT mixamorig:Spine
	{
		OFFSET 0.000000 10.181549 0.131524
		CHANNELS 6 Xposition Yposition Zposition Xrotation Yrotation Zrotation
		JOINT mixamorig:Spine1
		{
			OFFSET 0.000000 9.893990 -1.470706
			CHANNELS 3 Xrotation Yrotation Zrotation
			JOINT mixamorig:Spine2
			{
				OFFSET 0.000000 9.220787 -1.370637
				CHANNELS 3 Xrotation Yrotation Zrotation
				JOINT mixamorig:Neck
				{
					OFFSET 0.000000 16.740372 -2.049022
					CHANNELS 6 Xposition Yposition Zposition Xrotation Yrotation Zrotation
					JOINT mixamorig:Head
					{
						OFFSET 0.000000 9.617859 1.684976
						CHANNELS 6 Xposition Yposition Zposition Xrotation Yrotation Zrotation
						JOINT mixamorig:HeadTop_End
						{
							OFFSET 0.000000 22.037384 7.501072
							CHANNELS 6 Xposition Yposition Zposition Xrotation Yrotation Zrotation
							End Site
							{
								OFFSET 0.000000 23.106567 -2.828246
							}
						}
					}
				}
				JOINT mixamorig:RightShoulder
				{
					OFFSET -4.570000 11.014877 -2.160840
					CHANNELS 6 Xposition Yposition Zposition Xrotation Yrotation Zrotation
					JOINT mixamorig:RightArm
					{
						OFFSET -10.592867 -0.524796 -2.232105
						CHANNELS 3 Xrotation Yrotation Zrotation
						JOINT mixamorig:RightForeArm
						{
							OFFSET -27.841497 0.000000 -0.000002
							CHANNELS 3 Xrotation Yrotation Zrotation
							JOINT mixamorig:RightHand
							{
								OFFSET -28.328812 0.000000 -0.000001
								CHANNELS 3 Xrotation Yrotation Zrotation
								JOINT mixamorig:RightHandThumb1
								{
									OFFSET -2.464798 -1.573990 2.681911
									CHANNELS 6 Xposition Yposition Zposition Xrotation Yrotation Zrotation
									JOINT mixamorig:RightHandThumb2
									{
										OFFSET -3.244781 -1.873383 1.873376
										CHANNELS 3 Xrotation Yrotation Zrotation
										JOINT mixamorig:RightHandThumb3
										{
											OFFSET -2.646263 -1.527817 1.527818
											CHANNELS 6 Xposition Yposition Zposition Xrotation Yrotation Zrotation
											JOINT mixamorig:RightHandThumb4
											{
												OFFSET -1.994591 -1.151581 1.151575
												CHANNELS 6 Xposition Yposition Zposition Xrotation Yrotation Zrotation
												End Site
												{
													OFFSET -1.860176 -1.142715 1.365483
												}
											}
										}
									}
								}
								JOINT mixamorig:RightHandIndex1
								{
									OFFSET -9.108299 -0.517883 2.259803
									CHANNELS 6 Xposition Yposition Zposition Xrotation Yrotation Zrotation
									JOINT mixamorig:RightHandIndex2
									{
										OFFSET -3.699997 0.000000 0.000000
										CHANNELS 3 Xrotation Yrotation Zrotation
										JOINT mixamorig:RightHandIndex3
										{
											OFFSET -2.850006 0.000000 0.000000
											CHANNELS 3 Xrotation Yrotation Zrotation
											JOINT mixamorig:RightHandIndex4
											{
												OFFSET -2.772194 0.000000 0.000000
												CHANNELS 3 Xrotation Yrotation Zrotation
												End Site
												{
													OFFSET -2.772202 0.000000 -0.000484
												}
											}
										}
									}
								}
								JOINT mixamorig:RightHandMiddle1
								{
									OFFSET -9.532501 0.000000 -0.000000
									CHANNELS 6 Xposition Yposition Zposition Xrotation Yrotation Zrotation
									JOINT mixamorig:RightHandMiddle2
									{
										OFFSET -3.699997 0.000000 0.000000
										CHANNELS 3 Xrotation Yrotation Zrotation
										JOINT mixamorig:RightHandMiddle3
										{
											OFFSET -2.949997 0.000000 0.000000
											CHANNELS 3 Xrotation Yrotation Zrotation
											JOINT mixamorig:RightHandMiddle4
											{
												OFFSET -2.946594 0.000000 0.000000
												CHANNELS 3 Xrotation Yrotation Zrotation
												End Site
												{
													OFFSET -2.946602 0.000000 -0.000982
												}
											}
										}
									}
								}
								JOINT mixamorig:RightHandRing1
								{
									OFFSET -9.103600 -0.043106 -1.865100
									CHANNELS 6 Xposition Yposition Zposition Xrotation Yrotation Zrotation
									JOINT mixamorig:RightHandRing2
									{
										OFFSET -3.379303 0.000000 0.000000
										CHANNELS 3 Xrotation Yrotation Zrotation
										JOINT mixamorig:RightHandRing3
										{
											OFFSET -2.889694 0.000000 0.000000
											CHANNELS 3 Xrotation Yrotation Zrotation
											JOINT mixamorig:RightHandRing4
											{
												OFFSET -2.638802 0.000000 0.000000
												CHANNELS 3 Xrotation Yrotation Zrotation
												End Site
												{
													OFFSET -2.638802 0.000000 0.004218
												}
											}
										}
									}
								}
								JOINT mixamorig:RightHandPinky1
								{
									OFFSET -8.076698 -0.486725 -3.806299
									CHANNELS 6 Xposition Yposition Zposition Xrotation Yrotation Zrotation
									JOINT mixamorig:RightHandPinky2
									{
										OFFSET -3.600006 0.000000 0.000000
										CHANNELS 3 Xrotation Yrotation Zrotation
										JOINT mixamorig:RightHandPinky3
										{
											OFFSET -2.099998 0.000000 0.000000
											CHANNELS 3 Xrotation Yrotation Zrotation
											JOINT mixamorig:RightHandPinky4
											{
												OFFSET -2.115791 0.000000 0.000000
												CHANNELS 3 Xrotation Yrotation Zrotation
												End Site
												{
													OFFSET -2.115799 0.000000 0.000174
												}
											}
										}
									}
								}
							}
						}
					}
				}
				JOINT mixamorig:LeftShoulder
				{
					OFFSET 4.570400 11.014679 -2.160816
					CHANNELS 6 Xposition Yposition Zposition Xrotation Yrotation Zrotation
					JOINT mixamorig:LeftArm
					{
						OFFSET 10.592373 -0.524597 -2.232116
						CHANNELS 3 Xrotation Yrotation Zrotation
						JOINT mixamorig:LeftForeArm
						{
							OFFSET 27.841488 0.000000 0.000001
							CHANNELS 3 Xrotation Yrotation Zrotation
							JOINT mixamorig:LeftHand
							{
								OFFSET 28.328808 0.000000 -0.000000
								CHANNELS 3 Xrotation Yrotation Zrotation
								JOINT mixamorig:LeftHandThumb1
								{
									OFFSET 2.466103 -1.576202 2.681698
									CHANNELS 6 Xposition Yposition Zposition Xrotation Yrotation Zrotation
									JOINT mixamorig:LeftHandThumb2
									{
										OFFSET 3.243317 -1.872528 1.872530
										CHANNELS 3 Xrotation Yrotation Zrotation
										JOINT mixamorig:LeftHandThumb3
										{
											OFFSET 2.647881 -1.528763 1.528754
											CHANNELS 6 Xposition Yposition Zposition Xrotation Yrotation Zrotation
											JOINT mixamorig:LeftHandThumb4
											{
												OFFSET 1.998924 -1.154083 1.154080
												CHANNELS 6 Xposition Yposition Zposition Xrotation Yrotation Zrotation
												End Site
												{
													OFFSET 1.884041 -1.149155 1.337651
												}
											}
										}
									}
								}
								JOINT mixamorig:LeftHandIndex1
								{
									OFFSET 9.109299 -0.518005 2.259900
									CHANNELS 6 Xposition Yposition Zposition Xrotation Yrotation Zrotation
									JOINT mixamorig:LeftHandIndex2
									{
										OFFSET 3.699997 0.000000 0.000000
										CHANNELS 3 Xrotation Yrotation Zrotation
										JOINT mixamorig:LeftHandIndex3
										{
											OFFSET 2.850006 0.000000 0.000000
											CHANNELS 3 Xrotation Yrotation Zrotation
											JOINT mixamorig:LeftHandIndex4
											{
												OFFSET 2.774895 0.000000 0.000000
												CHANNELS 3 Xrotation Yrotation Zrotation
												End Site
												{
													OFFSET 2.774902 0.000000 -0.000072
												}
											}
										}
									}
								}
								JOINT mixamorig:LeftHandMiddle1
								{
									OFFSET 9.533401 0.000000 0.000000
									CHANNELS 6 Xposition Yposition Zposition Xrotation Yrotation Zrotation
									JOINT mixamorig:LeftHandMiddle2
									{
										OFFSET 3.699997 0.000000 0.000000
										CHANNELS 3 Xrotation Yrotation Zrotation
										JOINT mixamorig:LeftHandMiddle3
										{
											OFFSET 2.949997 0.000000 0.000000
											CHANNELS 3 Xrotation Yrotation Zrotation
											JOINT mixamorig:LeftHandMiddle4
											{
												OFFSET 2.952896 0.000000 0.000000
												CHANNELS 3 Xrotation Yrotation Zrotation
												End Site
												{
													OFFSET 2.952904 0.000000 0.000165
												}
											}
										}
									}
								}
								JOINT mixamorig:LeftHandRing1
								{
									OFFSET 9.104500 -0.042999 -1.865101
									CHANNELS 6 Xposition Yposition Zposition Xrotation Yrotation Zrotation
									JOINT mixamorig:LeftHandRing2
									{
										OFFSET 3.149994 0.000000 0.000000
										CHANNELS 3 Xrotation Yrotation Zrotation
										JOINT mixamorig:LeftHandRing3
										{
											OFFSET 2.950005 0.000000 0.000000
											CHANNELS 3 Xrotation Yrotation Zrotation
											JOINT mixamorig:LeftHandRing4
											{
												OFFSET 2.644302 0.000000 0.000000
												CHANNELS 3 Xrotation Yrotation Zrotation
												End Site
												{
													OFFSET 2.644302 0.000000 0.000083
												}
											}
										}
									}
								}
								JOINT mixamorig:LeftHandPinky1
								{
									OFFSET 8.077805 -0.486893 -3.806302
									CHANNELS 6 Xposition Yposition Zposition Xrotation Yrotation Zrotation
									JOINT mixamorig:LeftHandPinky2
									{
										OFFSET 3.600006 0.000000 0.000000
										CHANNELS 3 Xrotation Yrotation Zrotation
										JOINT mixamorig:LeftHandPinky3
										{
											OFFSET 2.099998 0.000000 0.000000
											CHANNELS 3 Xrotation Yrotation Zrotation
											JOINT mixamorig:LeftHandPinky4
											{
												OFFSET 2.125496 0.000000 0.000000
												CHANNELS 3 Xrotation Yrotation Zrotation
												End Site
												{
													OFFSET 2.125504 0.000000 -0.001254
												}
											}
										}
									}
								}
							}
						}
					}
				}
			}
		}
	}
	JOINT mixamorig:RightUpLeg
	{
		OFFSET -8.207800 -6.751701 -1.599544
		CHANNELS 6 Xposition Yposition Zposition Xrotation Yrotation Zrotation
		JOINT mixamorig:RightLeg
		{
			OFFSET 0.000004 -44.370152 0.345934
			CHANNELS 3 Xrotation Yrotation Zrotation
			JOINT mixamorig:RightFoot
			{
				OFFSET 0.000004 -44.423664 -3.043535
				CHANNELS 3 Xrotation Yrotation Zrotation
				JOINT mixamorig:RightToeBase
				{
					OFFSET 0.000001 -8.728691 10.710592
					CHANNELS 3 Xrotation Yrotation Zrotation
					JOINT mixamorig:RightToe_End
					{
						OFFSET 0.000000 -0.000665 9.278101
						CHANNELS 3 Xrotation Yrotation Zrotation
						End Site
						{
							OFFSET 0.000000 -0.000665 9.278103
						}
					}
				}
			}
		}
	}
	JOINT mixamorig:LeftUpLeg
	{
		OFFSET 8.207800 -6.751701 -1.599544
		CHANNELS 6 Xposition Yposition Zposition Xrotation Yrotation Zrotation
		JOINT mixamorig:LeftLeg
		{
			OFFSET 0.000004 -44.370037 0.346940
			CHANNELS 3 Xrotation Yrotation Zrotation
			JOINT mixamorig:LeftFoot
			{
				OFFSET 0.000004 -44.423611 -3.044388
				CHANNELS 3 Xrotation Yrotation Zrotation
				JOINT mixamorig:LeftToeBase
				{
					OFFSET 0.000001 -8.728690 10.710592
					CHANNELS 3 Xrotation Yrotation Zrotation
					JOINT mixamorig:LeftToe_End
					{
						OFFSET 0.000000 -0.000680 9.278101
						CHANNELS 3 Xrotation Yrotation Zrotation
						End Site
						{
							OFFSET 0.000000 -0.000680 9.278101
						}
					}
				}
			}
		}
	}
}
MOTION
Frames: 4
Frame Time: 0.033333
0.513015 100.931007 1.384932 -1.860380 7.817885 -3.164588 -0.000000 10.181566 0.131523 1.807733 -0.629695 2.199161 1.604729 0.049448 3.518973 1.609149 0.155856 3.489887 0.000000 16.740402 -2.049023 2.549697 -2.585723 3.200287 0.000001 9.617864 1.684978 -12.563207 -3.478879 -3.371267 -0.000001 22.037369 7.501068 -0.000000 -0.000000 0.000001 -4.570001 11.014886 -2.160842 4.700981 -0.327113 5.020195 8.003141 9.180064 58.731779 0.000006 22.125257 0.000003 -2.133704 0.763796 18.719267 -2.464808 -1.573973 2.681905 -6.901969 8.181171 -4.018446 7.464494 -23.792701 -2.837943 -2.646267 -1.527821 1.527817 -4.037293 -18.149542 -17.326559 -1.994578 -1.151585 1.151574 -0.000000 -0.000000 -0.000002 -9.108300 -0.517882 2.259803 -1.992642 5.229603 14.550682 0.223249 -1.426132 17.794931 0.069987 -0.805206 9.934762 -0.000000 0.000002 0.000003 -9.532493 0.000005 -0.000001 0.314670 -3.835305 19.453658 0.223267 -1.426127 17.794921 0.069970 -0.805199 9.934755 -0.000002 0.000003 0.000001 -9.103602 -0.043105 -1.865101 2.703318 -9.946658 21.118620 0.223692 -1.427506 17.812778 0.070008 -0.805271 9.935479 0.000002 -0.000001 0.000007 -8.076697 -0.486722 -3.806298 3.960641 -16.894487 24.893765 0.594438 -2.278646 29.239302 0.069991 -0.805210 9.934752 0.000000 -0.000001 -0.000001 4.570407 11.014712 -2.160816 -0.291679 -10.852233 -17.310558 10.918188 -8.209499 -51.725562 0.000006 -21.838017 0.000005 -21.906906 7.797308 -8.196854 2.466100 -1.576186 2.681702 -6.000613 -6.126728 4.616794 7.230320 21.960021 2.178834 2.647904 -1.528756 1.528754 -5.596056 12.091073 16.242907 1.998917 -1.154085 1.154083 0.000000 -0.000001 -0.000000 9.109299 -0.518017 2.259899 -2.034581 -4.751679 -15.395228 0.279823 1.790723 -17.763005 0.087696 1.011023 -9.916116 0.000000 -0.000001 0.000002 9.533401 0.000003 -0.000000 0.422558 4.378010 -20.122304 0.279823 1.790723 -17.763022 0.087694 1.011015 -9.916116 0.000000 0.000000 -0.000000 9.104498 -0.043007 -1.865102 2.890000 10.489038 -21.682946 0.280382 1.792461 -17.780833 0.087696 1.011089 -9.916822 0.000000 -0.000001 0.000002 8.077798 -0.486907 -3.806298 4.243192 17.490916 -25.349446 0.745259 2.861461 -29.192522 0.087689 1.011020 -9.916104 0.000001 -0.000001 0.000000 -8.207801 -6.751690 -1.599543 -4.771412 -6.452826 7.283937 20.730625 -9.171721 3.861888 -14.715001 -3.244596 -6.101750 -2.698764 -0.000006 0.000001 -0.000000 -0.000001 -0.000000 8.207801 -6.751690 -1.599543 -8.495317 11.079096 17.161504 14.165306 -8.740046 5.732648 -8.419904 -4.393812 -16.420751 -2.086140 0.000002 0.000002 -0.000000 -0.000001 0.000000 
0.529918 100.930412 1.310055 -1.768621 7.757413 -3.139095 -0.000001 10.181568 0.131525 1.816903 -0.608990 2.218244 1.654636 0.063011 3.544551 1.659349 0.169615 3.514780 0.000000 16.740351 -2.049020 1.983503 -2.576362 3.035838 -0.000001 9.617853 1.684976 -12.331164 -3.437563 -3.363790 0.000000 22.037354 7.501076 -0.000001 0.000000 -0.000000 -4.570001 11.014874 -2.160839 4.687472 -0.252536 4.969784 7.982451 9.120211 58.650479 -0.000012 22.315495 0.000025 -2.213108 0.819525 18.658841 -2.464802 -1.573988 2.681904 -6.901972 8.181167 -4.018445 7.464495 -23.792698 -2.837944 -2.646271 -1.527819 1.527818 -4.037294 -18.149542 -17.326558 -1.994571 -1.151587 1.151574 0.000002 0.000001 0.000001 -9.108289 -0.517886 2.259803 -1.992647 5.229603 14.550682 0.223253 -1.426132 17.794927 0.069986 -0.805206 9.934763 -0.000001 0.000001 0.000001 -9.532500 0.000007 0.000001 0.314667 -3.835305 19.453661 0.223264 -1.426128 17.794921 0.069971 -0.805199 9.934761 -0.000002 0.000001 0.000001 -9.103606 -0.043119 -1.865100 2.703315 -9.946658 21.118619 0.223692 -1.427506 17.812776 0.070007 -0.805272 9.935478 -0.000001 -0.000003 0.000003 -8.076686 -0.486713 -3.806295 3.960640 -16.894485 24.893765 0.594441 -2.278646 29.239299 0.069991 -0.805211 9.934752 0.000000 0.000000 0.000001 4.570405 11.014669 -2.160813 -0.289171 -10.791892 -17.352890 10.796462 -8.242157 -51.739711 -0.000001 -21.989060 0.000003 -22.047577 7.700425 -8.160225 2.466105 -1.576186 2.681701 -6.000614 -6.126727 4.616792 7.230322 21.960028 2.178830 2.647897 -1.528756 1.528753 -5.596056 12.091072 16.242905 1.998925 -1.154079 1.154082 -0.000000 -0.000000 -0.000004 9.109303 -0.518023 2.259898 -2.034581 -4.751680 -15.395231 0.279823 1.790723 -17.763005 0.087696 1.011021 -9.916115 -0.000000 -0.000000 0.000004 9.533394 0.000001 -0.000001 0.422558 4.378011 -20.122306 0.279823 1.790723 -17.763024 0.087694 1.011016 -9.916109 -0.000000 0.000000 -0.000003 9.104506 -0.042988 -1.865104 2.890000 10.489038 -21.682948 0.280382 1.792461 -17.780832 0.087696 1.011089 -9.916819 0.000000 -0.000001 -0.000000 8.077806 -0.486895 -3.806307 4.243192 17.490916 -25.349448 0.745259 2.861461 -29.192526 0.087689 1.011020 -9.916106 -0.000000 0.000000 -0.000003 -8.207798 -6.751695 -1.599542 -4.964304 -6.475468 7.205921 20.823447 -9.176370 3.869557 -14.696434 -3.166959 -6.083437 -2.730140 0.000001 -0.000002 -0.000000 -0.000001 -0.000000 8.207799 -6.751699 -1.599544 -8.612159 11.037280 17.095607 14.202816 -8.745153 5.722532 -8.384974 -4.299247 -16.381068 -2.088149 -0.000005 -0.000002 -0.000000 -0.000001 0.000000 
0.546613 100.926926 1.237114 -1.703193 7.714838 -3.127233 0.000001 10.181545 0.131525 1.843279 -0.605092 2.249118 1.720715 0.064801 3.573298 1.725529 0.171284 3.542548 -0.000000 16.740379 -2.049020 1.382395 -2.565844 2.885757 -0.000005 9.617847 1.684980 -12.034471 -3.386079 -3.366849 0.000001 22.037369 7.501071 -0.000001 0.000000 -0.000000 -4.570001 11.014898 -2.160841 4.675625 -0.182007 4.932991 7.934905 9.084735 58.538812 -0.000001 22.503996 0.000041 -2.322136 0.866958 18.599819 -2.464791 -1.573989 2.681912 -6.901971 8.181171 -4.018450 7.464496 -23.792698 -2.837940 -2.646267 -1.527813 1.527821 -4.037293 -18.149546 -17.326561 -1.994595 -1.151581 1.151574 0.000000 0.000004 0.000005 -9.108300 -0.517882 2.259804 -1.992646 5.229603 14.550682 0.223254 -1.426132 17.794927 0.069989 -0.805205 9.934763 0.000001 -0.000000 0.000003 -9.532493 0.000005 0.000003 0.314668 -3.835305 19.453659 0.223265 -1.426130 17.794921 0.069972 -0.805202 9.934756 -0.000001 0.000003 0.000004 -9.103591 -0.043100 -1.865099 2.703315 -9.946658 21.118617 0.223692 -1.427506 17.812776 0.070006 -0.805269 9.935479 -0.000001 -0.000001 0.000004 -8.076697 -0.486707 -3.806296 3.960639 -16.894487 24.893763 0.594443 -2.278648 29.239302 0.069992 -0.805210 9.934752 0.000001 -0.000001 0.000001 4.570399 11.014676 -2.160815 -0.284896 -10.727820 -17.382155 10.709835 -8.315015 -51.748812 -0.000006 -22.143595 -0.000018 -22.181055 7.555431 -8.209729 2.466095 -1.576199 2.681701 -6.000613 -6.126723 4.616796 7.230320 21.960030 2.178830 2.647885 -1.528756 1.528748 -5.596055 12.091077 16.242907 1.998921 -1.154067 1.154086 0.000000 -0.000000 -0.000002 9.109280 -0.518002 2.259902 -2.034581 -4.751679 -15.395231 0.279823 1.790723 -17.763003 0.087695 1.011022 -9.916121 -0.000000 -0.000001 0.000002 9.533386 0.000006 0.000001 0.422558 4.378011 -20.122302 0.279823 1.790724 -17.763022 0.087694 1.011015 -9.916112 -0.000000 -0.000000 -0.000003 9.104486 -0.042992 -1.865104 2.890000 10.489039 -21.682949 0.280382 1.792462 -17.780837 0.087696 1.011089 -9.916821 -0.000000 -0.000000 -0.000001 8.077790 -0.486899 -3.806299 4.243192 17.490916 -25.349443 0.745259 2.861463 -29.192522 0.087689 1.011020 -9.916110 0.000000 0.000000 -0.000000 -8.207800 -6.751720 -1.599544 -5.127026 -6.490296 7.154771 20.912805 -9.168993 3.870090 -14.682038 -3.128681 -6.069129 -2.732793 0.000003 0.000001 -0.000000 -0.000002 -0.000000 8.207801 -6.751723 -1.599544 -8.732030 10.995069 17.052592 14.280358 -8.740365 5.721323 -8.373292 -4.236971 -16.348650 -2.088238 -0.000003 -0.000001 -0.000000 -0.000001 0.000000 
0.563283 100.920059 1.163626 -1.647649 7.694537 -3.118191 -0.000000 10.181550 0.131522 1.871393 -0.616345 2.282388 1.791411 0.056182 3.602938 1.796181 0.162509 3.570878 -0.000001 16.740372 -2.049018 0.756759 -2.557911 2.739952 -0.000002 9.617855 1.684972 -11.647145 -3.362270 -3.365538 -0.000001 22.037369 7.501070 -0.000001 -0.000000 0.000000 -4.570004 11.014841 -2.160837 4.667081 -0.142782 4.887980 7.844403 9.062134 58.451113 -0.000009 22.702389 0.000034 -2.449311 0.899872 18.561678 -2.464797 -1.573986 2.681910 -6.901971 8.181174 -4.018444 7.464494 -23.792701 -2.837937 -2.646267 -1.527807 1.527811 -4.037292 -18.149544 -17.326558 -1.994587 -1.151586 1.151569 -0.000001 0.000003 0.000001 -9.108293 -0.517880 2.259802 -1.992648 5.229606 14.550683 0.223252 -1.426133 17.794924 0.069986 -0.805206 9.934761 -0.000000 -0.000000 0.000003 -9.532500 0.000007 -0.000000 0.314668 -3.835303 19.453661 0.223266 -1.426128 17.794919 0.069972 -0.805200 9.934759 0.000001 0.000003 0.000005 -9.103615 -0.043106 -1.865103 2.703318 -9.946655 21.118615 0.223691 -1.427506 17.812778 0.070008 -0.805270 9.935477 -0.000002 -0.000000 0.000002 -8.076694 -0.486713 -3.806300 3.960640 -16.894485 24.893765 0.594436 -2.278645 29.239295 0.069992 -0.805210 9.934749 0.000002 0.000001 0.000003 4.570397 11.014654 -2.160811 -0.280539 -10.662710 -17.412090 10.667209 -8.425883 -51.729175 0.000027 -22.288101 0.000004 -22.295484 7.407374 -8.287655 2.466108 -1.576215 2.681696 -6.000614 -6.126729 4.616794 7.230320 21.960025 2.178832 2.647897 -1.528755 1.528747 -5.596057 12.091073 16.242904 1.998925 -1.154068 1.154081 -0.000001 0.000003 -0.000000 9.109291 -0.518008 2.259898 -2.034581 -4.751679 -15.395229 0.279823 1.790723 -17.763005 0.087696 1.011022 -9.916118 0.000000 -0.000000 0.000003 9.533398 0.000003 -0.000002 0.422558 4.378012 -20.122302 0.279823 1.790723 -17.763024 0.087694 1.011015 -9.916110 -0.000000 -0.000000 -0.000001 9.104498 -0.043003 -1.865105 2.890001 10.489039 -21.682948 0.280382 1.792462 -17.780835 0.087696 1.011088 -9.916820 -0.000000 -0.000000 0.000002 8.077790 -0.486895 -3.806307 4.243192 17.490917 -25.349445 0.745259 2.861461 -29.192522 0.087689 1.011019 -9.916110 0.000001 0.000000 0.000001 -8.207800 -6.751702 -1.599543 -5.288047 -6.501246 7.114931 21.015374 -9.145815 3.863768 -14.677759 -3.134801 -6.058165 -2.709826 -0.000004 0.000000 0.000000 0.000001 -0.000000 8.207796 -6.751694 -1.599545 -8.866326 10.946748 17.018233 14.389127 -8.723948 5.723029 -8.376922 -4.207290 -16.319538 -2.084236 -0.000001 -0.000003 0.000000 -0.000000 0.000000 
